<mxfile host="app.diagrams.net" agent="Mozilla/5.0 (Windows NT 10.0; Win64; x64) AppleWebKit/537.36 (KHTML, like Gecko) Chrome/138.0.0.0 Safari/537.36" version="27.2.0">
  <diagram name="Page-1" id="2a216829-ef6e-dabb-86c1-c78162f3ba2b">
    <mxGraphModel dx="788" dy="1609" grid="1" gridSize="10" guides="1" tooltips="1" connect="1" arrows="1" fold="1" page="1" pageScale="1" pageWidth="850" pageHeight="1100" background="none" math="0" shadow="0">
      <root>
        <mxCell id="0" />
        <mxCell id="1" parent="0" />
        <mxCell id="AD-2xzPaG_5vpExTEv-p-4" style="edgeStyle=orthogonalEdgeStyle;rounded=0;orthogonalLoop=1;jettySize=auto;html=1;exitX=1;exitY=0.5;exitDx=0;exitDy=0;" edge="1" parent="1" source="AD-2xzPaG_5vpExTEv-p-2">
          <mxGeometry relative="1" as="geometry">
            <mxPoint x="169.9999999999999" y="54.86206896551727" as="targetPoint" />
          </mxGeometry>
        </mxCell>
        <mxCell id="AD-2xzPaG_5vpExTEv-p-2" value="Inicio" style="ellipse;whiteSpace=wrap;html=1;aspect=fixed;strokeColor=#82b366;fillColor=#d5e8d4;gradientColor=none;" vertex="1" parent="1">
          <mxGeometry x="50" y="30" width="50" height="50" as="geometry" />
        </mxCell>
        <mxCell id="AD-2xzPaG_5vpExTEv-p-3" value="&lt;p&gt;&lt;br&gt;&lt;/p&gt;&lt;p&gt;&lt;strong&gt;Pintura&lt;/strong&gt;&lt;/p&gt;&lt;p&gt;&lt;span class=&quot;selected&quot;&gt;→ &lt;/span&gt;&lt;span class=&quot;selected&quot;&gt;&amp;nbsp;→&lt;/span&gt;&lt;span class=&quot;selected&quot;&gt;&amp;nbsp;→ &lt;/span&gt;&lt;span class=&quot;selected&quot;&gt;&amp;nbsp;→ &lt;/span&gt;&lt;span class=&quot;selected&quot;&gt;&amp;nbsp;→ &lt;/span&gt;&lt;span class=&quot;selected&quot;&gt;&amp;nbsp;→ &lt;/span&gt;&lt;strong&gt;(Fim)&lt;/strong&gt;&lt;/p&gt;" style="text;whiteSpace=wrap;html=1;" vertex="1" parent="1">
          <mxGeometry x="400" y="860" width="560" height="550" as="geometry" />
        </mxCell>
        <mxCell id="AD-2xzPaG_5vpExTEv-p-7" value="Engenharia" style="swimlane;horizontal=0;whiteSpace=wrap;html=1;" vertex="1" parent="1">
          <mxGeometry x="20" y="-10" width="300" height="130" as="geometry" />
        </mxCell>
        <mxCell id="AD-2xzPaG_5vpExTEv-p-6" value="&lt;span style=&quot;font-family: monospace; text-align: left;&quot;&gt;Projetar O.P do Cilindro&lt;/span&gt;" style="rounded=1;whiteSpace=wrap;html=1;" vertex="1" parent="AD-2xzPaG_5vpExTEv-p-7">
          <mxGeometry x="150" y="35" width="120" height="60" as="geometry" />
        </mxCell>
        <mxCell id="AD-2xzPaG_5vpExTEv-p-9" value="Analista PCP" style="swimlane;horizontal=0;whiteSpace=wrap;html=1;startSize=23;" vertex="1" parent="1">
          <mxGeometry x="10" y="180" width="370" height="90" as="geometry" />
        </mxCell>
        <mxCell id="AD-2xzPaG_5vpExTEv-p-16" style="edgeStyle=orthogonalEdgeStyle;rounded=0;orthogonalLoop=1;jettySize=auto;html=1;" edge="1" parent="AD-2xzPaG_5vpExTEv-p-9" source="AD-2xzPaG_5vpExTEv-p-14">
          <mxGeometry relative="1" as="geometry">
            <mxPoint x="210" y="39.99999999999977" as="targetPoint" />
          </mxGeometry>
        </mxCell>
        <mxCell id="AD-2xzPaG_5vpExTEv-p-14" value="&lt;span style=&quot;font-family: monospace; text-align: left;&quot;&gt;Receber e Imprimir O.P.&lt;/span&gt;" style="rounded=1;whiteSpace=wrap;html=1;" vertex="1" parent="AD-2xzPaG_5vpExTEv-p-9">
          <mxGeometry x="30" y="10" width="120" height="60" as="geometry" />
        </mxCell>
        <mxCell id="AD-2xzPaG_5vpExTEv-p-17" value="&lt;span style=&quot;font-family: monospace; text-align: left;&quot;&gt;Entregar O.S. para Produção&lt;/span&gt;" style="rounded=1;whiteSpace=wrap;html=1;" vertex="1" parent="AD-2xzPaG_5vpExTEv-p-9">
          <mxGeometry x="210" y="10" width="120" height="60" as="geometry" />
        </mxCell>
        <mxCell id="AD-2xzPaG_5vpExTEv-p-15" style="edgeStyle=orthogonalEdgeStyle;rounded=0;orthogonalLoop=1;jettySize=auto;html=1;exitX=0.5;exitY=1;exitDx=0;exitDy=0;entryX=0.5;entryY=0;entryDx=0;entryDy=0;dashed=1;dashPattern=1 2;" edge="1" parent="1" source="AD-2xzPaG_5vpExTEv-p-6" target="AD-2xzPaG_5vpExTEv-p-14">
          <mxGeometry relative="1" as="geometry" />
        </mxCell>
        <mxCell id="AD-2xzPaG_5vpExTEv-p-25" style="edgeStyle=orthogonalEdgeStyle;rounded=0;orthogonalLoop=1;jettySize=auto;html=1;exitX=1;exitY=0.5;exitDx=0;exitDy=0;entryX=0.5;entryY=0;entryDx=0;entryDy=0;dashed=1;" edge="1" parent="1" source="AD-2xzPaG_5vpExTEv-p-19" target="AD-2xzPaG_5vpExTEv-p-23">
          <mxGeometry relative="1" as="geometry" />
        </mxCell>
        <mxCell id="AD-2xzPaG_5vpExTEv-p-26" value="Sim" style="edgeLabel;html=1;align=center;verticalAlign=middle;resizable=0;points=[];" vertex="1" connectable="0" parent="AD-2xzPaG_5vpExTEv-p-25">
          <mxGeometry x="-0.33" relative="1" as="geometry">
            <mxPoint as="offset" />
          </mxGeometry>
        </mxCell>
        <mxCell id="AD-2xzPaG_5vpExTEv-p-39" style="edgeStyle=orthogonalEdgeStyle;rounded=0;orthogonalLoop=1;jettySize=auto;html=1;exitX=0.5;exitY=1;exitDx=0;exitDy=0;entryX=0.25;entryY=0;entryDx=0;entryDy=0;dashed=1;" edge="1" parent="1" source="AD-2xzPaG_5vpExTEv-p-19" target="AD-2xzPaG_5vpExTEv-p-35">
          <mxGeometry relative="1" as="geometry" />
        </mxCell>
        <mxCell id="AD-2xzPaG_5vpExTEv-p-40" value="Não" style="edgeLabel;html=1;align=center;verticalAlign=middle;resizable=0;points=[];" vertex="1" connectable="0" parent="AD-2xzPaG_5vpExTEv-p-39">
          <mxGeometry x="-0.0613" y="-2" relative="1" as="geometry">
            <mxPoint as="offset" />
          </mxGeometry>
        </mxCell>
        <mxCell id="AD-2xzPaG_5vpExTEv-p-19" value="Usa Chapa?" style="rhombus;whiteSpace=wrap;html=1;" vertex="1" parent="1">
          <mxGeometry x="240" y="290" width="80" height="80" as="geometry" />
        </mxCell>
        <mxCell id="AD-2xzPaG_5vpExTEv-p-20" style="edgeStyle=orthogonalEdgeStyle;rounded=0;orthogonalLoop=1;jettySize=auto;html=1;exitX=0.5;exitY=1;exitDx=0;exitDy=0;entryX=0.5;entryY=0;entryDx=0;entryDy=0;" edge="1" parent="1" source="AD-2xzPaG_5vpExTEv-p-17" target="AD-2xzPaG_5vpExTEv-p-19">
          <mxGeometry relative="1" as="geometry" />
        </mxCell>
        <mxCell id="AD-2xzPaG_5vpExTEv-p-21" value="Corte" style="swimlane;horizontal=0;whiteSpace=wrap;html=1;startSize=23;" vertex="1" parent="1">
          <mxGeometry x="450" y="180" width="370" height="90" as="geometry" />
        </mxCell>
        <mxCell id="AD-2xzPaG_5vpExTEv-p-22" style="edgeStyle=orthogonalEdgeStyle;rounded=0;orthogonalLoop=1;jettySize=auto;html=1;" edge="1" parent="AD-2xzPaG_5vpExTEv-p-21" source="AD-2xzPaG_5vpExTEv-p-23">
          <mxGeometry relative="1" as="geometry">
            <mxPoint x="210" y="39.99999999999977" as="targetPoint" />
          </mxGeometry>
        </mxCell>
        <mxCell id="AD-2xzPaG_5vpExTEv-p-23" value="&lt;span style=&quot;font-family: monospace; text-align: left;&quot;&gt;Programar e Cortar Chapas&lt;/span&gt;" style="rounded=1;whiteSpace=wrap;html=1;" vertex="1" parent="AD-2xzPaG_5vpExTEv-p-21">
          <mxGeometry x="30" y="10" width="120" height="60" as="geometry" />
        </mxCell>
        <mxCell id="AD-2xzPaG_5vpExTEv-p-24" value="&lt;code style=&quot;text-align: left;&quot;&gt;Dar Baixa no Material&lt;/code&gt;&lt;span style=&quot;text-align: left;&quot; class=&quot;selected&quot;&gt;&amp;nbsp;&lt;/span&gt;&lt;div&gt;&lt;span style=&quot;text-align: left;&quot; class=&quot;selected&quot;&gt;&amp;nbsp;&lt;/span&gt;&lt;code style=&quot;text-align: left;&quot;&gt;Identificar e Enviar Peças&lt;/code&gt;&lt;/div&gt;" style="rounded=1;whiteSpace=wrap;html=1;" vertex="1" parent="AD-2xzPaG_5vpExTEv-p-21">
          <mxGeometry x="210" y="10" width="120" height="60" as="geometry" />
        </mxCell>
        <mxCell id="AD-2xzPaG_5vpExTEv-p-27" value="Dobra" style="swimlane;horizontal=0;whiteSpace=wrap;html=1;startSize=23;" vertex="1" parent="1">
          <mxGeometry x="450" y="330" width="370" height="90" as="geometry" />
        </mxCell>
        <mxCell id="AD-2xzPaG_5vpExTEv-p-28" style="edgeStyle=orthogonalEdgeStyle;rounded=0;orthogonalLoop=1;jettySize=auto;html=1;" edge="1" parent="AD-2xzPaG_5vpExTEv-p-27" source="AD-2xzPaG_5vpExTEv-p-29">
          <mxGeometry relative="1" as="geometry">
            <mxPoint x="210" y="39.99999999999977" as="targetPoint" />
          </mxGeometry>
        </mxCell>
        <mxCell id="AD-2xzPaG_5vpExTEv-p-29" value="&lt;span style=&quot;font-family: monospace; text-align: left;&quot;&gt;Remover Rebarbas&lt;/span&gt;" style="rounded=1;whiteSpace=wrap;html=1;" vertex="1" parent="AD-2xzPaG_5vpExTEv-p-27">
          <mxGeometry x="30" y="10" width="120" height="60" as="geometry" />
        </mxCell>
        <mxCell id="AD-2xzPaG_5vpExTEv-p-30" value="&lt;span style=&quot;font-family: monospace; text-align: left;&quot;&gt;Identificar e Enviar Peças para Hidráulica&lt;/span&gt;" style="rounded=1;whiteSpace=wrap;html=1;" vertex="1" parent="AD-2xzPaG_5vpExTEv-p-27">
          <mxGeometry x="210" y="10" width="120" height="60" as="geometry" />
        </mxCell>
        <mxCell id="AD-2xzPaG_5vpExTEv-p-32" style="edgeStyle=orthogonalEdgeStyle;rounded=0;orthogonalLoop=1;jettySize=auto;html=1;exitX=0;exitY=1;exitDx=0;exitDy=0;entryX=0.5;entryY=0;entryDx=0;entryDy=0;dashed=1;" edge="1" parent="1" source="AD-2xzPaG_5vpExTEv-p-24" target="AD-2xzPaG_5vpExTEv-p-29">
          <mxGeometry relative="1" as="geometry" />
        </mxCell>
        <mxCell id="AD-2xzPaG_5vpExTEv-p-33" value="Hidráulcia" style="swimlane;horizontal=0;whiteSpace=wrap;html=1;startSize=23;" vertex="1" parent="1">
          <mxGeometry x="10" y="460" width="810" height="200" as="geometry" />
        </mxCell>
        <mxCell id="AD-2xzPaG_5vpExTEv-p-34" style="edgeStyle=orthogonalEdgeStyle;rounded=0;orthogonalLoop=1;jettySize=auto;html=1;" edge="1" parent="AD-2xzPaG_5vpExTEv-p-33" source="AD-2xzPaG_5vpExTEv-p-35">
          <mxGeometry relative="1" as="geometry">
            <mxPoint x="210" y="39.99999999999977" as="targetPoint" />
          </mxGeometry>
        </mxCell>
        <mxCell id="AD-2xzPaG_5vpExTEv-p-35" value="&lt;span style=&quot;font-family: monospace; text-align: left;&quot;&gt;Ajustar e Cortar Camisa (Tubo)&lt;/span&gt;" style="rounded=1;whiteSpace=wrap;html=1;" vertex="1" parent="AD-2xzPaG_5vpExTEv-p-33">
          <mxGeometry x="30" y="10" width="120" height="60" as="geometry" />
        </mxCell>
        <mxCell id="AD-2xzPaG_5vpExTEv-p-42" style="edgeStyle=orthogonalEdgeStyle;rounded=0;orthogonalLoop=1;jettySize=auto;html=1;exitX=1;exitY=0.5;exitDx=0;exitDy=0;entryX=0;entryY=0.5;entryDx=0;entryDy=0;" edge="1" parent="AD-2xzPaG_5vpExTEv-p-33" source="AD-2xzPaG_5vpExTEv-p-36" target="AD-2xzPaG_5vpExTEv-p-43">
          <mxGeometry relative="1" as="geometry">
            <mxPoint x="410" y="40.16666666666697" as="targetPoint" />
          </mxGeometry>
        </mxCell>
        <mxCell id="AD-2xzPaG_5vpExTEv-p-36" value="&lt;code style=&quot;text-align: left;&quot;&gt;Facear Pontas da Camisa&lt;/code&gt;&lt;span style=&quot;text-align: left;&quot; class=&quot;selected&quot;&gt;&amp;nbsp;&lt;/span&gt;" style="rounded=1;whiteSpace=wrap;html=1;" vertex="1" parent="AD-2xzPaG_5vpExTEv-p-33">
          <mxGeometry x="210" y="10" width="120" height="60" as="geometry" />
        </mxCell>
        <mxCell id="AD-2xzPaG_5vpExTEv-p-44" style="edgeStyle=orthogonalEdgeStyle;rounded=0;orthogonalLoop=1;jettySize=auto;html=1;exitX=1;exitY=0.5;exitDx=0;exitDy=0;entryX=0;entryY=0.5;entryDx=0;entryDy=0;" edge="1" parent="AD-2xzPaG_5vpExTEv-p-33" source="AD-2xzPaG_5vpExTEv-p-43" target="AD-2xzPaG_5vpExTEv-p-45">
          <mxGeometry relative="1" as="geometry">
            <mxPoint x="620" y="40.16666666666697" as="targetPoint" />
          </mxGeometry>
        </mxCell>
        <mxCell id="AD-2xzPaG_5vpExTEv-p-43" value="&lt;span style=&quot;font-family: monospace; text-align: left;&quot;&gt;Cortar e Facear Haste&lt;/span&gt;" style="rounded=1;whiteSpace=wrap;html=1;" vertex="1" parent="AD-2xzPaG_5vpExTEv-p-33">
          <mxGeometry x="410" y="10" width="120" height="60" as="geometry" />
        </mxCell>
        <mxCell id="AD-2xzPaG_5vpExTEv-p-50" style="edgeStyle=orthogonalEdgeStyle;rounded=0;orthogonalLoop=1;jettySize=auto;html=1;exitX=0.5;exitY=1;exitDx=0;exitDy=0;" edge="1" parent="AD-2xzPaG_5vpExTEv-p-33" source="AD-2xzPaG_5vpExTEv-p-45" target="AD-2xzPaG_5vpExTEv-p-49">
          <mxGeometry relative="1" as="geometry" />
        </mxCell>
        <mxCell id="AD-2xzPaG_5vpExTEv-p-45" value="&lt;span style=&quot;font-family: monospace; text-align: left;&quot;&gt;Polir e Lubrificar Haste&lt;/span&gt;" style="rounded=1;whiteSpace=wrap;html=1;" vertex="1" parent="AD-2xzPaG_5vpExTEv-p-33">
          <mxGeometry x="620" y="10" width="120" height="60" as="geometry" />
        </mxCell>
        <mxCell id="AD-2xzPaG_5vpExTEv-p-52" style="edgeStyle=orthogonalEdgeStyle;rounded=0;orthogonalLoop=1;jettySize=auto;html=1;exitX=0;exitY=0.5;exitDx=0;exitDy=0;" edge="1" parent="AD-2xzPaG_5vpExTEv-p-33" source="AD-2xzPaG_5vpExTEv-p-49">
          <mxGeometry relative="1" as="geometry">
            <mxPoint x="540" y="160.16666666666697" as="targetPoint" />
          </mxGeometry>
        </mxCell>
        <mxCell id="AD-2xzPaG_5vpExTEv-p-49" value="&lt;span style=&quot;font-family: monospace; text-align: left;&quot;&gt;Montar e Soldar Estrutura&lt;/span&gt;" style="rounded=1;whiteSpace=wrap;html=1;" vertex="1" parent="AD-2xzPaG_5vpExTEv-p-33">
          <mxGeometry x="620" y="130" width="120" height="60" as="geometry" />
        </mxCell>
        <mxCell id="AD-2xzPaG_5vpExTEv-p-54" style="edgeStyle=orthogonalEdgeStyle;rounded=0;orthogonalLoop=1;jettySize=auto;html=1;exitX=0;exitY=0.5;exitDx=0;exitDy=0;" edge="1" parent="AD-2xzPaG_5vpExTEv-p-33" source="AD-2xzPaG_5vpExTEv-p-53">
          <mxGeometry relative="1" as="geometry">
            <mxPoint x="340" y="160.16666666666697" as="targetPoint" />
          </mxGeometry>
        </mxCell>
        <mxCell id="AD-2xzPaG_5vpExTEv-p-53" value="&lt;span style=&quot;font-family: monospace; text-align: left;&quot;&gt;Inspecionar Soldas e Medidas&lt;/span&gt;" style="rounded=1;whiteSpace=wrap;html=1;" vertex="1" parent="AD-2xzPaG_5vpExTEv-p-33">
          <mxGeometry x="410" y="130" width="130" height="60" as="geometry" />
        </mxCell>
        <mxCell id="AD-2xzPaG_5vpExTEv-p-57" style="edgeStyle=orthogonalEdgeStyle;rounded=0;orthogonalLoop=1;jettySize=auto;html=1;exitX=0;exitY=0.5;exitDx=0;exitDy=0;entryX=1;entryY=0.5;entryDx=0;entryDy=0;" edge="1" parent="AD-2xzPaG_5vpExTEv-p-33" source="AD-2xzPaG_5vpExTEv-p-55">
          <mxGeometry relative="1" as="geometry">
            <mxPoint x="160" y="160" as="targetPoint" />
          </mxGeometry>
        </mxCell>
        <mxCell id="AD-2xzPaG_5vpExTEv-p-55" value="&lt;code style=&quot;text-align: left;&quot;&gt;Montar Componentes na Haste&lt;/code&gt;&lt;span style=&quot;text-align: left;&quot; class=&quot;selected&quot;&gt;&amp;nbsp;e&amp;nbsp;&lt;/span&gt;&lt;code style=&quot;text-align: left;&quot;&gt;Montar Válvula&lt;/code&gt;" style="rounded=1;whiteSpace=wrap;html=1;" vertex="1" parent="AD-2xzPaG_5vpExTEv-p-33">
          <mxGeometry x="210" y="130" width="130" height="60" as="geometry" />
        </mxCell>
        <mxCell id="AD-2xzPaG_5vpExTEv-p-58" value="&lt;div style=&quot;&quot;&gt;&lt;font face=&quot;monospace&quot;&gt;Dar baixa na Conclusão do Processo&lt;/font&gt;&lt;/div&gt;" style="rounded=1;whiteSpace=wrap;html=1;align=center;" vertex="1" parent="AD-2xzPaG_5vpExTEv-p-33">
          <mxGeometry x="30" y="130" width="130" height="60" as="geometry" />
        </mxCell>
        <mxCell id="AD-2xzPaG_5vpExTEv-p-51" style="edgeStyle=orthogonalEdgeStyle;rounded=0;orthogonalLoop=1;jettySize=auto;html=1;exitX=0.5;exitY=1;exitDx=0;exitDy=0;entryX=0.461;entryY=0.031;entryDx=0;entryDy=0;entryPerimeter=0;dashed=1;" edge="1" parent="1" source="AD-2xzPaG_5vpExTEv-p-30" target="AD-2xzPaG_5vpExTEv-p-35">
          <mxGeometry relative="1" as="geometry" />
        </mxCell>
        <mxCell id="AD-2xzPaG_5vpExTEv-p-59" value="Pintura" style="swimlane;horizontal=0;whiteSpace=wrap;html=1;startSize=23;" vertex="1" parent="1">
          <mxGeometry x="10" y="720" width="720" height="90" as="geometry" />
        </mxCell>
        <mxCell id="AD-2xzPaG_5vpExTEv-p-60" style="edgeStyle=orthogonalEdgeStyle;rounded=0;orthogonalLoop=1;jettySize=auto;html=1;" edge="1" parent="AD-2xzPaG_5vpExTEv-p-59" source="AD-2xzPaG_5vpExTEv-p-61">
          <mxGeometry relative="1" as="geometry">
            <mxPoint x="210" y="39.99999999999977" as="targetPoint" />
          </mxGeometry>
        </mxCell>
        <mxCell id="AD-2xzPaG_5vpExTEv-p-61" value="&lt;span style=&quot;font-family: monospace; text-align: left;&quot;&gt;Buscar e Preparar Cilindro&lt;/span&gt;" style="rounded=1;whiteSpace=wrap;html=1;" vertex="1" parent="AD-2xzPaG_5vpExTEv-p-59">
          <mxGeometry x="30" y="10" width="120" height="60" as="geometry" />
        </mxCell>
        <mxCell id="AD-2xzPaG_5vpExTEv-p-64" style="edgeStyle=orthogonalEdgeStyle;rounded=0;orthogonalLoop=1;jettySize=auto;html=1;exitX=1;exitY=0.5;exitDx=0;exitDy=0;" edge="1" parent="AD-2xzPaG_5vpExTEv-p-59" source="AD-2xzPaG_5vpExTEv-p-62">
          <mxGeometry relative="1" as="geometry">
            <mxPoint x="410" y="40.16666666666697" as="targetPoint" />
          </mxGeometry>
        </mxCell>
        <mxCell id="AD-2xzPaG_5vpExTEv-p-62" value="&lt;span style=&quot;text-align: left;&quot; class=&quot;selected&quot;&gt;&amp;nbsp;&lt;/span&gt;&lt;code style=&quot;text-align: left;&quot;&gt;Realizar Limpeza&lt;/code&gt;" style="rounded=1;whiteSpace=wrap;html=1;" vertex="1" parent="AD-2xzPaG_5vpExTEv-p-59">
          <mxGeometry x="210" y="10" width="120" height="60" as="geometry" />
        </mxCell>
        <mxCell id="AD-2xzPaG_5vpExTEv-p-67" style="edgeStyle=orthogonalEdgeStyle;rounded=0;orthogonalLoop=1;jettySize=auto;html=1;" edge="1" parent="AD-2xzPaG_5vpExTEv-p-59" source="AD-2xzPaG_5vpExTEv-p-65" target="AD-2xzPaG_5vpExTEv-p-66">
          <mxGeometry relative="1" as="geometry" />
        </mxCell>
        <mxCell id="AD-2xzPaG_5vpExTEv-p-65" value="&lt;span style=&quot;font-family: monospace; text-align: left;&quot;&gt;Pintar Cilindro&lt;/span&gt;" style="rounded=1;whiteSpace=wrap;html=1;" vertex="1" parent="AD-2xzPaG_5vpExTEv-p-59">
          <mxGeometry x="410" y="10" width="120" height="60" as="geometry" />
        </mxCell>
        <mxCell id="AD-2xzPaG_5vpExTEv-p-66" value="&lt;span style=&quot;font-family: monospace; text-align: left;&quot;&gt;Aguardar Secagem e&amp;nbsp;&lt;/span&gt;&lt;span style=&quot;font-family: monospace; text-align: left;&quot;&gt;Dar Baixa e Embalar&lt;/span&gt;" style="rounded=1;whiteSpace=wrap;html=1;" vertex="1" parent="AD-2xzPaG_5vpExTEv-p-59">
          <mxGeometry x="580" y="10" width="120" height="60" as="geometry" />
        </mxCell>
        <mxCell id="AD-2xzPaG_5vpExTEv-p-63" style="edgeStyle=orthogonalEdgeStyle;rounded=0;orthogonalLoop=1;jettySize=auto;html=1;exitX=0.5;exitY=1;exitDx=0;exitDy=0;dashed=1;" edge="1" parent="1" source="AD-2xzPaG_5vpExTEv-p-58" target="AD-2xzPaG_5vpExTEv-p-61">
          <mxGeometry relative="1" as="geometry" />
        </mxCell>
      </root>
    </mxGraphModel>
  </diagram>
</mxfile>
